<?xml version="1.0" standalone="no"?>
<!DOCTYPE svg PUBLIC "-//W3C//DTD SVG 20010904//EN"
 "http://www.w3.org/TR/2001/REC-SVG-20010904/DTD/svg10.dtd">
<svg version="1.0" xmlns="http://www.w3.org/2000/svg"
 width="700.000000pt" height="700.000000pt" viewBox="0 0 700.000000 700.000000"
 preserveAspectRatio="xMidYMid meet">
<metadata>
Created by potrace 1.14, written by Peter Selinger 2001-2017
</metadata>
<g transform="translate(0.000000,700.000000) scale(0.100000,-0.100000)"
fill="#000000" stroke="none">
<path d="M3534 6347 c-21 -25 -91 -100 -154 -167 -63 -67 -126 -134 -139 -149
-22 -24 -176 -188 -283 -302 -23 -26 -97 -104 -163 -175 -66 -71 -150 -160
-186 -199 -37 -38 -77 -82 -90 -96 -13 -15 -71 -77 -129 -139 -58 -62 -116
-124 -129 -139 -13 -14 -76 -81 -139 -149 -64 -68 -123 -132 -133 -143 -15
-18 -204 -220 -293 -313 -21 -23 -77 -83 -125 -135 -47 -52 -99 -108 -116
-126 -41 -43 -246 -263 -281 -301 -52 -57 -239 -257 -264 -284 -23 -24 -201
-215 -266 -286 -43 -46 -234 -251 -274 -294 -41 -44 -213 -228 -294 -315 -30
-33 -56 -64 -56 -68 0 -8 63 -83 195 -232 35 -38 86 -97 114 -129 l51 -59 -22
-26 c-13 -14 -53 -57 -89 -96 -36 -38 -93 -99 -125 -134 -32 -35 -75 -81 -96
-102 l-36 -38 121 -139 c67 -76 147 -167 177 -201 30 -35 60 -69 65 -75 6 -6
57 -65 115 -131 58 -66 107 -122 110 -125 3 -3 48 -54 100 -115 52 -60 109
-126 126 -145 17 -19 45 -51 62 -70 l30 -35 49 35 c26 19 55 40 63 47 8 7 89
69 180 139 91 70 201 155 245 189 44 34 130 99 190 145 61 46 115 89 121 95 7
5 22 18 35 27 13 9 267 204 564 433 572 440 560 431 645 497 30 24 73 57 95
73 22 16 47 35 55 42 8 7 91 71 185 142 166 128 170 130 190 112 11 -10 175
-145 365 -302 190 -156 347 -286 350 -289 3 -3 41 -34 85 -69 44 -36 85 -69
90 -75 6 -6 33 -29 60 -51 28 -22 59 -47 70 -57 11 -9 79 -65 150 -124 72 -58
150 -124 175 -144 71 -60 451 -374 605 -500 77 -63 236 -195 354 -293 l214
-178 41 44 c23 24 82 88 131 142 50 53 101 109 115 124 14 15 68 73 120 130
52 57 109 118 125 135 17 18 71 77 120 131 50 53 106 114 125 135 125 134 159
174 153 179 -5 3 -53 58 -108 121 -54 63 -102 117 -105 120 -4 4 -104 122
-136 160 -14 17 -26 3 200 244 67 71 129 136 138 145 16 14 14 19 -30 70 -26
31 -51 61 -57 67 -5 6 -30 35 -55 64 -25 29 -50 58 -56 64 -10 10 -113 131
-159 185 -11 13 -25 29 -30 35 -6 6 -35 40 -65 76 -30 36 -60 69 -66 75 -6 5
-37 42 -70 80 -32 39 -61 72 -64 75 -3 3 -30 34 -60 70 -30 36 -57 67 -60 70
-3 3 -32 37 -65 75 -33 39 -62 72 -65 75 -3 3 -73 84 -155 180 -82 96 -183
213 -224 260 -40 47 -83 96 -95 110 -65 76 -392 457 -401 466 -16 17 -100 115
-271 314 -88 102 -171 199 -186 215 -14 17 -88 102 -164 190 -75 88 -160 187
-189 220 -29 33 -171 197 -315 365 -144 168 -272 316 -284 330 -12 14 -53 61
-91 105 -38 44 -81 93 -95 108 l-26 28 -40 -44z"/>
</g>
</svg>
